<svg width="511.999" height="511.999" xmlns="http://www.w3.org/2000/svg" stroke="null" style="vector-effect: non-scaling-stroke;" xml:space="preserve" version="1.1">

 <g stroke="null">
  <title stroke="null">Layer 1</title>
  <g stroke="null" id="svg_1">
   <g stroke="null" id="svg_2">
    <path stroke="null" id="svg_3" d="m438.17576,162.2338c-9.98,-10.25614 -22.66684,-16.63866 -36.35041,-18.41303l-0.01659,-14.98171c-0.01659,-13.8662 -5.31288,-26.8961 -14.91767,-36.68777c-9.58437,-9.7721 -22.31333,-15.15132 -35.84886,-15.15132c-0.0268,0 -0.05105,0 -0.07785,0c-17.01959,0.02479 -32.09679,8.65659 -41.29447,21.85088c-1.12562,-1.41297 -2.32781,-2.77507 -3.60658,-4.07975c-9.60351,-9.79297 -22.32482,-15.2296 -35.92543,-15.15393c-16.14922,0.02479 -30.70827,7.90901 -40.03357,20.17566c-9.30105,-12.55499 -24.0375,-20.61665 -40.49683,-20.61665c-0.02425,0 -0.05232,0 -0.07785,0c-20.53556,0.03131 -38.24942,12.59152 -46.20917,30.58314c-7.87169,-6.56126 -17.92826,-10.41922 -28.84627,-10.41922c-0.02297,0 -0.04722,0 -0.07019,0c-25.09548,0.03784 -45.48938,20.94151 -45.46003,46.59685l0.06764,61.422c0.0051,4.76471 0.7134,9.45245 2.10703,13.96014l0.04594,91.31366c0.00255,5.85152 4.64287,10.59274 10.36669,10.59274c0.00128,0 0.00255,0 0.0051,0c5.7251,-0.00261 10.36414,-4.75036 10.36158,-10.60318l-0.03191,-64.85593c6.7231,3.95842 14.42888,6.21813 22.45244,6.26119l0.2897,0.0013c15.36945,-0.02348 28.99559,-7.86204 37.26929,-19.82601c9.36358,10.59274 22.857,17.16575 37.55516,17.24534l0.32288,0.0013c16.13645,-0.02609 30.68912,-7.78767 40.05016,-20.01127c9.2985,12.42713 23.91626,20.35962 40.23265,20.44965l0.32161,0c4.53184,-0.00652 9.01645,-0.62103 13.33006,-1.82265c0.46837,-0.13047 0.91377,-0.30269 1.34768,-0.49187c3.21734,0.73062 6.50104,1.09333 9.83195,1.09463l33.53891,-0.20875c0.03829,0 0.07785,0 0.11486,0c4.9632,0 9.66988,2.00791 13.26625,5.66103c3.14204,3.19387 5.13038,7.2945 5.75317,11.77479l-23.83075,34.48937c-0.17357,0.2518 -0.33564,0.51144 -0.48751,0.77759c-18.53956,32.51538 -20.8125,73.00369 -6.07733,108.30849c1.68077,4.02757 5.51069,6.44254 9.5397,6.44254c1.35789,0 2.73493,-0.27398 4.06219,-0.85326c5.26694,-2.29755 7.71344,-8.52351 5.4673,-13.90795c-11.93516,-28.5948 -10.12676,-62.62492 4.69774,-88.92739l25.6736,-37.15223c1.2341,-1.78872 1.89901,-3.9258 1.89901,-6.11637c0,-11.34555 -4.29063,-21.95525 -12.08192,-29.87078c-7.51052,-7.63111 -17.40246,-11.82306 -27.8789,-11.82306c-0.08168,0 -0.16336,0 -0.24631,0l-33.53891,0.20875c-2.60475,0.01566 -5.17122,-0.41359 -7.6458,-1.28251c-0.72489,-0.25311 -1.43319,-0.54275 -2.12745,-0.86762c-0.07147,-0.03392 -0.13783,-0.07698 -0.21058,-0.1109c-1.99089,-0.95503 -3.86055,-2.19709 -5.59748,-3.74445c-0.03701,-0.03392 -0.07402,-0.06915 -0.11231,-0.10307c-0.7887,-0.71627 -1.5455,-1.50952 -2.30101,-2.40062c-0.04084,-0.05349 -0.08806,-0.10307 -0.13017,-0.15526c-0.09444,-0.11481 -0.18505,-0.23223 -0.2846,-0.34183c-0.03318,-0.03784 -0.06381,-0.07959 -0.09827,-0.11742c-0.04722,-0.05871 -0.09316,-0.11742 -0.13911,-0.17613c-0.16974,-0.21919 -0.33437,-0.44359 -0.49772,-0.6693c-0.13783,-0.21527 -0.28332,-0.42402 -0.43519,-0.62755c-0.27949,-0.40967 -0.55388,-0.82065 -0.8104,-1.24728c-0.01659,-0.0274 -0.03318,-0.05349 -0.04977,-0.0822c-0.20292,-0.34052 -0.38542,-0.6967 -0.57047,-1.05027c-0.07913,-0.14873 -0.1608,-0.28703 -0.23865,-0.44229c-0.07657,-0.167 -0.1557,-0.33269 -0.23993,-0.49448c-0.11869,-0.24789 -0.22844,-0.50361 -0.33947,-0.75802c-0.18505,-0.4188 -0.35989,-0.84022 -0.5207,-1.26685c-0.13783,-0.36401 -0.28204,-0.72671 -0.40328,-1.09594l-0.08423,-0.25441c-0.00766,-0.0274 -0.01787,-0.05219 -0.0268,-0.07959c-0.17612,-0.55449 -0.33437,-1.11681 -0.46837,-1.67261c-0.02808,-0.1383 -0.05871,-0.27659 -0.09061,-0.41359c-0.10593,-0.4723 -0.20164,-0.94851 -0.2846,-1.42863c-0.00128,-0.01044 -0.00383,-0.01827 -0.0051,-0.0287c0,-0.0013 0,-0.0013 0,-0.00261c0,-0.0013 0,-0.00261 -0.00128,-0.00391c-0.00255,-0.01696 -0.00638,-0.03523 -0.01021,-0.05349l0,0.00522l-0.00255,-0.01566c-0.01276,-0.06523 -0.0217,-0.12655 -0.03446,-0.19179c-0.00128,-0.00391 -0.00255,-0.00913 -0.00255,-0.01305l-0.00638,-0.03392c0,-0.0013 0,-0.0013 0,-0.0013c-0.09316,-0.58972 -0.16208,-1.18465 -0.21568,-1.78351c0,-0.00391 -0.00128,-0.00652 -0.00128,-0.01044l-0.02935,-0.37836c0,-0.00391 0,-0.00783 0,-0.01305c-0.04722,-0.62494 -0.08423,-1.2525 -0.08806,-1.89049l-0.0804,-12.65676l-0.00128,-0.1683c-0.00128,-6.80133 2.49117,-13.1982 7.01918,-18.01249l0.00128,-0.0013c0.00128,-0.0013 0.00128,-0.0013 0.00255,-0.00261c0.53091,-0.56493 1.10265,-1.11812 1.69992,-1.6439l0.00128,0c1.45999,-1.2812 3.05526,-2.35887 4.74241,-3.23562c7.68536,-1.0568 45.72165,-5.73409 105.3349,-4.15673c0.68277,0.14352 1.3898,0.2218 2.11341,0.2218l2.47841,0c11.0903,0 21.57695,4.49986 29.52777,12.67111c8.34644,8.577 12.90763,20.07651 12.84254,32.381l-0.33054,63.18593c-0.05615,10.84716 -2.74131,21.58211 -7.76066,31.0463l-75.88498,143.04445c-0.84103,1.58389 -1.27111,3.36087 -1.25324,5.16264l0.43264,42.55755l-196.11329,-1.07245l1.38597,-28.38605c0.11486,-2.35496 -0.54239,-4.68252 -1.8671,-6.61476l-49.67792,-72.41006c-6.58654,-10.61101 -10.9346,-22.85027 -12.57582,-35.41309c-0.75935,-5.80194 -5.97651,-9.87908 -11.64801,-9.10149c-5.67532,0.77629 -9.66094,6.10723 -8.90287,11.90787c2.04832,15.6771 7.50159,30.96019 15.7689,44.20015c0.08168,0.13047 0.16463,0.25702 0.25141,0.38358l47.76742,69.62325l-1.25452,25.69579l-27.2459,-0.14873c-13.76014,0 -25.01252,11.4447 -25.08654,25.51052l-0.18377,35.02429c-0.03573,6.85091 2.54094,13.30388 7.25273,18.17558c4.22172,4.36287 9.70561,6.96833 15.61959,7.49412l-11.24728,130.35246c-0.74403,8.62397 2.09937,17.24142 7.80277,23.64091c5.70213,6.40079 13.82906,10.09827 22.29802,10.14524l261.10578,1.42863c0.01914,0 0.15442,0.00261 0.16718,0c8.29156,0 16.32278,-3.52657 22.03256,-9.67816c5.70978,-6.1529 8.73569,-14.53942 8.3005,-23.00944l-6.79329,-132.26905c10.23651,-3.19257 17.74704,-12.91769 17.80574,-24.39762l0.1825,-35.02299c0.03573,-6.85091 -2.53967,-13.30649 -7.25273,-18.17688c-4.71306,-4.86909 -10.99969,-7.57109 -17.70109,-7.60762l-29.45247,-0.16048l-0.40839,-40.14388l74.60238,-140.63078c6.6427,-12.52107 10.1944,-26.71344 10.2697,-41.03759l0.33054,-63.18593c0.09189,-17.99162 -6.61334,-34.84033 -18.87904,-47.44751zm-298.6686,45.10951c-0.01914,14.0332 -11.20261,25.46747 -24.88618,25.48965l-0.21951,-0.0013c-9.88811,-0.05349 -18.9135,-6.27032 -22.80978,-15.56229c-0.09699,-0.44359 -0.21185,-0.88327 -0.365,-1.31251c-0.98013,-2.75941 -1.47913,-5.65973 -1.48168,-8.62136l-0.06764,-61.422c-0.01531,-13.97188 11.09158,-25.35657 24.75856,-25.37614c0.01276,0 0.02425,0 0.03573,0c11.92367,0 22.29419,8.92014 24.38718,20.84757l0.69298,65.01771c-0.02808,0.30921 -0.04467,0.62364 -0.04467,0.94068zm50.25987,22.90898l-0.25397,-0.0013c-13.96817,-0.07437 -26.08327,-10.08392 -29.22786,-23.93055l-0.70319,-66.05885l-0.01021,-9.15237c-0.01914,-16.92438 13.43343,-30.71361 29.98976,-30.7384c0.01531,0 0.03063,0 0.04594,0c15.80336,0 28.91646,12.56412 29.95275,28.65221l0.03063,74.47538c-2.00238,15.2583 -14.75176,26.7304 -29.82385,26.75389zm89.63874,-82.54356c-0.08295,0.01305 -0.16208,0.03653 -0.24503,0.05088c-0.20037,0.03653 -0.39946,0.07828 -0.59982,0.12655c-0.16336,0.03914 -0.32288,0.08611 -0.48369,0.13438c-0.15697,0.04827 -0.31522,0.09655 -0.4722,0.15134c-0.19654,0.06915 -0.38797,0.14612 -0.5794,0.22571c-0.07657,0.03262 -0.15187,0.0548 -0.22844,0.08872c-0.06126,0.0274 -0.11869,0.06132 -0.17995,0.08872c-0.11996,0.0561 -0.23865,0.11612 -0.35606,0.17613c-3.77632,1.76654 -7.30505,4.05627 -10.48282,6.84438c-0.00255,0.0013 -0.00383,0.00391 -0.00638,0.00652c-1.09627,0.96286 -2.1517,1.98443 -3.14076,3.0347c0,0 0,0 -0.00128,0c-0.00128,0.0013 -0.00255,0.00261 -0.00383,0.00391c-0.00255,0.00261 -0.00383,0.00522 -0.00638,0.00652c-8.25583,8.78184 -12.80043,20.39485 -12.7966,32.70065c0,0.02218 0,0.04566 0,0.06654l0.00128,0.23223l0.0804,12.65415c0.00638,1.04114 0.0536,2.11098 0.14676,3.36609c0.00128,0.01566 0.00383,0.03001 0.0051,0.04566c0.00128,0.01696 0,0.03262 0.00128,0.04958l0.05105,0.63538c0,0.00261 0.00128,0.00522 0.00128,0.00913c0.1021,1.13377 0.23099,2.18796 0.39435,3.21996c0,0.0013 0,0.0013 0,0.0013c0,0.0013 0,0.00261 0,0.00391l0.08806,0.50491c0.00128,0.00522 0.00255,0.01174 0.00383,0.01696c0.00255,0.01957 0.00893,0.04566 0.01276,0.06523c0.00128,0.01044 0.00128,0.01827 0.00255,0.0287c0.01149,0.06262 0.0268,0.12264 0.03701,0.18527c0.01276,0.06784 0.02425,0.12525 0.03829,0.19309c0.13528,0.75933 0.28077,1.51344 0.4505,2.25841c0.00255,0.01044 0.0051,0.01957 0.00638,0.03001c0.00383,0.01827 0.01021,0.04305 0.01531,0.06262c0,0 0,0 0,0.0013c0.0051,0.02479 0.01149,0.04827 0.01276,0.05349c0,0.0013 0.00128,0.00391 0.00128,0.00522c0.00255,0.01174 0.00383,0.02218 0.00638,0.03392l0.1072,0.46969c0.00638,0.0274 0.01404,0.05349 0.01914,0.08089c0.23227,0.9472 0.5041,1.91789 0.80912,2.88988c0.01276,0.04045 0.0268,0.0822 0.03829,0.12134l0.00128,0.00261l0.07913,0.24398c0.01149,0.03653 0.02297,0.07437 0.03573,0.1122l0.00638,0.02087c0,0.0013 0.00128,0.00261 0.00128,0.00391l0.0485,0.14221l0.01531,0.04697c0.00638,0.02218 0.01531,0.04566 0.0217,0.06784c0.13911,0.4188 0.28332,0.83369 0.43391,1.24728c0.00128,0.0013 0.00128,0.00391 0.00128,0.00522c0.15059,0.4175 0.32543,0.82717 0.48751,1.23945c0.10082,0.25441 0.19526,0.51013 0.29991,0.76324c0.38286,0.92372 0.78487,1.837 1.22134,2.72549l0.00128,0.00261c0.00128,0.0013 0.00128,0.00261 0.00128,0.00522c0.00638,0.01305 0.01531,0.02479 0.0217,0.03784c0.01021,0.01827 0.01659,0.03653 0.02425,0.0548c0.00128,0.00391 0.00255,0.00652 0.00383,0.01174l0.08423,0.1683l0.09316,0.18787c0.00255,0.00522 0.0051,0.01044 0.00766,0.01435l0.00893,0.01566c0.00128,0.0013 0.00255,0.00391 0.00383,0.00522c0.17739,0.34705 0.35096,0.67322 0.5258,0.99939c-8.18564,-4.67208 -14.06005,-13.11992 -15.26225,-23.20645l-0.03063,-74.46103c1.21113,-15.85063 14.28594,-28.25428 29.87745,-28.27907c7.98017,-0.01435 15.57237,3.17039 21.2528,8.9645c5.68043,5.79411 8.81609,13.50219 8.82375,21.70606l0.01659,13.86881c-12.98165,1.14421 -20.16291,2.25058 -20.85462,2.35887zm41.61735,-3.81099l-0.01659,-14.96344c-0.01787,-16.92438 13.43598,-30.71491 29.98848,-30.7384c0.01659,0 0.03063,0 0.04594,0c8.00697,0 15.53791,3.18213 21.2094,8.9645c5.68043,5.79411 8.81609,13.50219 8.82502,21.70475l0.01531,14.04233c-23.99283,-0.4175 -44.17488,0.13047 -60.06758,0.99026zm71.10555,576.8303c-1.8403,1.98051 -4.32254,3.07254 -6.99238,3.07254c-0.00128,0 -0.00128,0 -0.00128,0l-0.00128,10.59796l-0.0536,-10.59796l-261.10578,-1.42863c-2.72855,-0.01566 -5.24396,-1.15856 -7.08171,-3.22127c-1.83647,-2.06271 -2.71706,-4.72818 -2.47713,-7.50586l11.38894,-131.99767l262.16121,1.43385l6.79839,132.34081c0.13911,2.7294 -0.79636,5.32573 -2.63538,7.30624zm9.47079,-204.69738c1.56847,0.01044 2.5971,0.83239 3.07185,1.32165c0.47348,0.49056 1.26728,1.54997 1.25835,3.15343l-0.1825,35.02429c-0.01276,2.44237 -1.96537,4.4281 -4.35189,4.4268l0,0.64582c-0.00893,-0.00261 -0.01659,-0.00522 -0.02425,-0.00913l-0.00128,-0.63669l-3.50576,-0.01957c0,0 -0.00128,0 -0.00255,0l-111.97249,-0.6132l-178.68659,-0.97851c-1.56847,-0.00783 -2.5971,-0.83108 -3.07185,-1.32034c-0.47348,-0.49056 -1.26728,-1.54997 -1.25962,-3.15343l0.18377,-35.02429c0.01276,-2.44237 1.96537,-4.4268 4.37741,-4.4268l37.02042,0.20223c0.00128,0 0.00255,0 0.00383,0l93.13046,0.51013l164.01268,0.89762z"/>
   </g>
  </g>
  <g stroke="null" id="svg_4"/>
  <g stroke="null" id="svg_5"/>
  <g stroke="null" id="svg_6"/>
  <g stroke="null" id="svg_7"/>
  <g stroke="null" id="svg_8"/>
  <g stroke="null" id="svg_9"/>
  <g stroke="null" id="svg_10"/>
  <g stroke="null" id="svg_11"/>
  <g stroke="null" id="svg_12"/>
  <g stroke="null" id="svg_13"/>
  <g stroke="null" id="svg_14"/>
  <g stroke="null" id="svg_15"/>
  <g stroke="null" id="svg_16"/>
  <g stroke="null" id="svg_17"/>
  <g stroke="null" id="svg_18"/>
 </g>
</svg>